<?xml version="1.0" encoding="UTF-8" standalone="no"?>
<svg
   xmlns:dc="http://purl.org/dc/elements/1.1/"
   xmlns:cc="http://creativecommons.org/ns#"
   xmlns:rdf="http://www.w3.org/1999/02/22-rdf-syntax-ns#"
   xmlns:svg="http://www.w3.org/2000/svg"
   xmlns="http://www.w3.org/2000/svg"
   xmlns:sodipodi="http://sodipodi.sourceforge.net/DTD/sodipodi-0.dtd"
   xmlns:inkscape="http://www.inkscape.org/namespaces/inkscape"
   version="1.1"
   id="svg2"
   xml:space="preserve"
   width="437.42667"
   height="1094.4667"
   viewBox="0 0 437.42667 1094.4667"
   sodipodi:docname="logo.eps"><metadata
     id="metadata8"><rdf:RDF><cc:Work
         rdf:about=""><dc:format>image/svg+xml</dc:format><dc:type
           rdf:resource="http://purl.org/dc/dcmitype/StillImage" /></cc:Work></rdf:RDF></metadata><defs
     id="defs6" /><sodipodi:namedview
     pagecolor="#ffffff"
     bordercolor="#666666"
     borderopacity="1"
     objecttolerance="10"
     gridtolerance="10"
     guidetolerance="10"
     inkscape:pageopacity="0"
     inkscape:pageshadow="2"
     inkscape:window-width="640"
     inkscape:window-height="480"
     id="namedview4" /><g
     id="g10"
     inkscape:groupmode="layer"
     inkscape:label="ink_ext_XXXXXX"
     transform="matrix(1.3333333,0,0,-1.3333333,0,1094.4667)"><g
       id="g12"
       transform="scale(0.1)"><path
         d="M 1640.35,8208.5 0,7261.37 1640.35,6314.23 3280.68,7261.37 1640.35,8208.5"
         style="fill:#222352;fill-opacity:1;fill-rule:nonzero;stroke:none"
         id="path14" /><path
         d="m 0,7261.37 v -631.42 l 1640.35,-947.14 v 631.42 L 0,7261.37"
         style="fill:#6e4dab;fill-opacity:1;fill-rule:nonzero;stroke:none"
         id="path16" /><path
         d="M 3280.68,7261.37 V 6629.95 L 1640.35,5682.81 v 631.42 l 1640.33,947.14"
         style="fill:#100f0d;fill-opacity:1;fill-rule:nonzero;stroke:none"
         id="path18" /><path
         d="M 0,1578.56 V 947.141 L 1640.35,0 V 631.43 L 0,1578.56"
         style="fill:#ffffff;fill-opacity:1;fill-rule:nonzero;stroke:none"
         id="path20" /><path
         d="M 3280.69,1578.56 V 947.141 L 1640.35,0 v 631.43 l 1640.34,947.13"
         style="fill:#100f0d;fill-opacity:1;fill-rule:nonzero;stroke:none"
         id="path22" /><path
         d="M 0,3472.83 V 2841.41 L 1640.35,1894.27 V 2525.7 L 0,3472.83"
         style="fill:#ffffff;fill-opacity:1;fill-rule:nonzero;stroke:none"
         id="path24" /><path
         d="M 3280.69,3472.83 V 2841.41 L 1640.35,1894.27 v 631.43 l 1640.34,947.13"
         style="fill:#100f0d;fill-opacity:1;fill-rule:nonzero;stroke:none"
         id="path26" /><path
         d="m 0,4735.68 v -631.43 l 1640.35,-947.13 v 631.42 L 0,4735.68"
         style="fill:#ffffff;fill-opacity:1;fill-rule:nonzero;stroke:none"
         id="path28" /><path
         d="M 3280.69,4735.68 V 4104.25 L 1640.35,3157.12 v 631.42 l 1640.34,947.14"
         style="fill:#100f0d;fill-opacity:1;fill-rule:nonzero;stroke:none"
         id="path30" /><path
         d="M 1640.34,5051.39 0,5998.52 V 5367.1 l 1640.34,-947.14 1640.35,947.14 v 631.42 L 1640.34,5051.39"
         style="fill:#100f0d;fill-opacity:1;fill-rule:nonzero;stroke:none"
         id="path32" /><path
         d="m 0,6629.95 1640.35,-947.14 546.78,315.71 V 5367.1 L 1640.35,5051.39 0,5998.52 v 631.43"
         style="fill:#ffffff;fill-opacity:1;fill-rule:nonzero;stroke:none"
         id="path34" /><path
         d="m 3280.68,5998.52 v 631.43 L 2187.13,5998.52 V 5367.1 l 1093.55,631.42"
         style="fill:#63c332;fill-opacity:1;fill-rule:nonzero;stroke:none"
         id="path36" /><path
         d="m 0,2841.41 1640.35,-947.14 546.78,315.71 V 1578.56 L 1640.35,1262.85 0,2209.98 v 631.43"
         style="fill:#100f0d;fill-opacity:1;fill-rule:nonzero;stroke:none"
         id="path38" /><path
         d="m 3280.69,2209.98 v 631.43 L 2187.13,2209.98 v -631.42 l 1093.56,631.42"
         style="fill:#ffffff;fill-opacity:1;fill-rule:nonzero;stroke:none"
         id="path40" /><path
         d="m 0,2209.98 1640.35,-947.13 546.78,315.71 V 947.141 L 1640.35,631.43 0,1578.56 v 631.42"
         style="fill:#6e4dab;fill-opacity:1;fill-rule:nonzero;stroke:none"
         id="path42" /><path
         d="m 3280.69,1578.56 v 631.42 L 2187.13,1578.56 V 947.141 l 1093.56,631.419"
         style="fill:#100f0d;fill-opacity:1;fill-rule:nonzero;stroke:none"
         id="path44" /><path
         d="m 0,5367.1 1640.35,-947.14 546.78,315.72 V 4104.25 L 1640.35,3788.54 0,4735.68 v 631.42"
         style="fill:#6e4dab;fill-opacity:1;fill-rule:nonzero;stroke:none"
         id="path46" /><path
         d="M 3280.69,4735.68 V 5367.1 L 2187.13,4735.68 v -631.43 l 1093.56,631.43"
         style="fill:#ffffff;fill-opacity:1;fill-rule:nonzero;stroke:none"
         id="path48" /><path
         d="M 3280.69,4104.25 1640.35,3157.12 546.781,3788.54 V 3157.11 L 1640.35,2525.7 3280.69,3472.83 v 631.42"
         style="fill:#6e4dab;fill-opacity:1;fill-rule:nonzero;stroke:none"
         id="path50" /><path
         d="m 0,3472.83 v 631.42 L 546.781,3788.54 V 3157.11 L 0,3472.83"
         style="fill:#100f0d;fill-opacity:1;fill-rule:nonzero;stroke:none"
         id="path52" /></g></g></svg>
