<svg version="1.2" baseProfile="tiny-ps" xmlns="http://www.w3.org/2000/svg" viewBox="0 0 548 1128" width="548" height="1128">
	<title>logo-ai</title>
	<style>
		tspan { white-space:pre }
		.shp0 { fill: #251856 } 
		.shp1 { fill: #735ba6 } 
		.shp2 { fill: #000000 } 
		.shp3 { fill: #ffffff } 
		.shp4 { fill: #6dbd45 } 
	</style>
	<g id="Layer 1">
		<g id="&lt;Group&gt;">
			<path id="&lt;Path&gt;" class="shp0" d="M666.36 283.43L338.29 472.85L10.22 283.43L338.29 94L666.36 283.43Z" />
			<path id="&lt;Path&gt;" class="shp1" d="M338.29 472.85L338.29 599.14L10.22 409.71L10.22 283.43L338.29 472.85Z" />
			<path id="&lt;Path&gt;" class="shp2" d="M666.36 283.43L666.36 409.71L338.29 599.14L338.29 472.85L666.36 283.43Z" />
			<path id="&lt;Path&gt;" class="shp3" d="M338.29 1609.41L338.29 1735.7L10.22 1546.27L10.22 1419.99L338.29 1609.41Z" />
			<path id="&lt;Path&gt;" class="shp2" d="M666.36 1419.99L666.36 1546.27L338.29 1735.7L338.29 1609.41L666.36 1419.99Z" />
			<path id="&lt;Path&gt;" class="shp3" d="M338.29 1230.56L338.29 1356.85L10.22 1167.42L10.22 1041.13L338.29 1230.56Z" />
			<path id="&lt;Path&gt;" class="shp2" d="M666.36 1041.13L666.36 1167.42L338.29 1356.85L338.29 1230.56L666.36 1041.13Z" />
			<path id="&lt;Path&gt;" class="shp3" d="M338.29 977.99L338.29 1104.28L10.22 914.85L10.22 788.56L338.29 977.99Z" />
			<path id="&lt;Path&gt;" class="shp2" d="M666.36 788.56L666.36 914.85L338.29 1104.28L338.29 977.99L666.36 788.56Z" />
			<path id="&lt;Path&gt;" class="shp2" d="M666.36 536L666.36 662.28L338.29 851.71L10.22 662.28L10.22 536L338.29 725.42L666.36 536Z" />
			<path id="&lt;Path&gt;" class="shp3" d="M10.22 409.71L338.29 599.14L447.65 536L447.65 662.28L338.29 725.42L10.22 536L10.22 409.71Z" />
			<path id="&lt;Path&gt;" class="shp4" d="M447.65 662.28L447.65 536L666.36 409.71L666.36 536L447.65 662.28Z" />
			<path id="&lt;Path&gt;" class="shp2" d="M10.22 1167.42L338.29 1356.85L447.65 1293.7L447.65 1419.99L338.29 1483.13L10.22 1293.7L10.22 1167.42Z" />
			<path id="&lt;Path&gt;" class="shp3" d="M447.65 1419.99L447.65 1293.7L666.36 1167.42L666.36 1293.7L447.65 1419.99Z" />
			<path id="&lt;Path&gt;" class="shp1" d="M10.22 1293.7L338.29 1483.13L447.65 1419.99L447.65 1546.27L338.29 1609.41L10.22 1419.99L10.22 1293.7Z" />
			<path id="&lt;Path&gt;" class="shp2" d="M447.65 1546.27L447.65 1419.99L666.36 1293.7L666.36 1419.99L447.65 1546.27Z" />
			<path id="&lt;Path&gt;" class="shp1" d="M10.22 662.28L338.29 851.71L447.65 788.56L447.65 914.85L338.29 977.99L10.22 788.56L10.22 662.28Z" />
			<path id="&lt;Path&gt;" class="shp3" d="M447.65 914.85L447.65 788.56L666.36 662.28L666.36 788.56L447.65 914.85Z" />
			<path id="&lt;Path&gt;" class="shp1" d="M666.36 1041.13L338.29 1230.56L119.58 1104.28L119.58 977.99L338.29 1104.28L666.36 914.85L666.36 1041.13Z" />
			<path id="&lt;Path&gt;" class="shp2" d="M10.22 1041.13L10.22 914.85L119.58 977.99L119.58 1104.28L10.22 1041.13Z" />
		</g>
	</g>
</svg>