<svg version="1.2" baseProfile="tiny-ps" xmlns="http://www.w3.org/2000/svg" viewBox="0 0 1393 176" width="633" height="80">
	<title>logo_hathor_streets-svg</title>
	<style>
		tspan { white-space:pre }
		.shp0 { fill: #000000 } 
		.shp1 { fill: #251856 } 
		.shp2 { fill: #735ba6 } 
		.shp3 { fill: #ffffff } 
		.shp4 { fill: #6dbd45 } 
	</style>
	<path id="HATHORSTREETS" fill-rule="evenodd" class="shp0" d="M188.6 79.5L188.6 35.25L207.5 35.25L207.5 141L188.6 141L188.6 95.1L134.45 95.1L134.45 141L115.4 141L115.4 35.25L134.45 35.25L134.45 79.5L188.6 79.5ZM330.35 141L311.15 141L300.5 116.25L249.05 116.25L238.4 141L218.9 141L266.75 35.25L282.5 35.25L330.35 141ZM274.7 56.25L255.35 101.25L294.05 101.25L274.7 56.25ZM372.8 141L353.45 141L353.45 51.15L318.95 51.15L318.95 35.25L407.3 35.25L407.3 51.15L372.8 51.15L372.8 141ZM493.7 79.5L493.7 35.25L512.6 35.25L512.6 141L493.7 141L493.7 95.1L439.55 95.1L439.55 141L420.5 141L420.5 35.25L439.55 35.25L439.55 79.5L493.7 79.5ZM582.5 142.35C572.2 142.35 563.25 140.15 555.65 135.75C548.15 131.35 542.35 125.05 538.25 116.85C534.15 108.65 532.1 99.05 532.1 88.05C532.1 77.05 534.1 67.5 538.1 59.4C542.2 51.2 548.05 44.9 555.65 40.5C563.25 36.1 572.2 33.9 582.5 33.9C592.8 33.9 601.7 36.1 609.2 40.5C616.8 44.9 622.6 51.2 626.6 59.4C630.7 67.5 632.75 77.05 632.75 88.05C632.75 99.05 630.7 108.65 626.6 116.85C622.5 125.05 616.65 131.35 609.05 135.75C601.55 140.15 592.7 142.35 582.5 142.35ZM582.5 126.9C592.2 126.9 599.75 123.55 605.15 116.85C610.65 110.15 613.4 100.55 613.4 88.05C613.4 75.55 610.65 66 605.15 59.4C599.75 52.7 592.2 49.35 582.5 49.35C572.7 49.35 565.05 52.7 559.55 59.4C554.15 66 551.45 75.55 551.45 88.05C551.45 100.55 554.15 110.15 559.55 116.85C565.05 123.55 572.7 126.9 582.5 126.9ZM723.2 108.6L740.9 141L719.9 141L701.75 107.25C700.05 104.05 697.95 101.8 695.45 100.5C692.95 99.2 689.8 98.55 686 98.55L671.3 98.55L671.3 141L652.25 141L652.25 35.25L699.05 35.25C711.05 35.25 720.15 37.95 726.35 43.35C732.65 48.65 735.8 56.35 735.8 66.45C735.8 74.55 733.5 81.25 728.9 86.55C724.4 91.75 718 95.15 709.7 96.75C715.3 98.25 719.8 102.2 723.2 108.6ZM696.35 83.7C703.65 83.7 709 82.35 712.4 79.65C715.8 76.85 717.5 72.6 717.5 66.9C717.5 61.1 715.8 56.9 712.4 54.3C709 51.6 703.65 50.25 696.35 50.25L671.15 50.25L671.15 83.7L696.35 83.7ZM791.3 142.2C783 142.2 775.75 141.05 769.55 138.75C763.35 136.45 757.75 132.85 752.75 127.95L755.9 122.7C761.2 127.6 766.5 131.05 771.8 133.05C777.1 135.05 783.6 136.05 791.3 136.05C800.8 136.05 808.15 134.1 813.35 130.2C818.55 126.2 821.15 120.55 821.15 113.25C821.15 109.05 819.85 105.65 817.25 103.05C814.65 100.45 811.45 98.5 807.65 97.2C803.85 95.8 798.75 94.35 792.35 92.85C783.75 90.75 777.1 88.9 772.4 87.3C767.8 85.6 763.65 82.85 759.95 79.05C756.35 75.15 754.55 69.9 754.55 63.3C754.55 57.4 756 52.25 758.9 47.85C761.9 43.45 766.15 40.05 771.65 37.65C777.25 35.25 783.75 34.05 791.15 34.05C805.65 34.05 817.5 38.8 826.7 48.3L823.55 53.55C818.55 48.85 813.45 45.45 808.25 43.35C803.15 41.25 797.45 40.2 791.15 40.2C781.65 40.2 774.25 42.25 768.95 46.35C763.65 50.45 761 56.2 761 63.6C761 70 763.3 74.75 767.9 77.85C772.5 80.85 778.95 83.4 787.25 85.5L793.7 87C800.9 88.6 806.75 90.25 811.25 91.95C815.75 93.55 819.55 96.1 822.65 99.6C825.85 103.1 827.45 107.8 827.45 113.7C827.45 119.3 825.95 124.25 822.95 128.55C819.95 132.85 815.7 136.2 810.2 138.6C804.8 141 798.5 142.2 791.3 142.2ZM879.5 141L873.2 141L873.2 40.95L834.35 40.95L834.35 35.25L918.35 35.25L918.35 40.95L879.5 40.95L879.5 141ZM993.95 104.7L1013.15 141L1006.25 141L988.4 107.1C985.8 102.1 982.8 98.7 979.4 96.9C976 95.1 971.25 94.2 965.15 94.2L940.7 94.2L940.7 141L934.55 141L934.55 35.25L975.35 35.25C986.25 35.25 994.65 37.75 1000.55 42.75C1006.55 47.65 1009.55 54.9 1009.55 64.5C1009.55 72.7 1007.1 79.25 1002.2 84.15C997.4 89.05 990.55 92 981.65 93C984.15 93.8 986.35 95.15 988.25 97.05C990.25 98.95 992.15 101.5 993.95 104.7ZM940.85 88.2L975.5 88.2C993.8 88.2 1002.95 80.25 1002.95 64.35C1002.95 56.55 1000.7 50.75 996.2 46.95C991.7 43.05 984.8 41.1 975.5 41.1L940.85 41.1L940.85 88.2ZM1099.7 141L1036.1 141L1036.1 35.25L1099.7 35.25L1099.7 41.1L1042.4 41.1L1042.4 84.45L1096.7 84.45L1096.7 90.3L1042.4 90.3L1042.4 135.15L1099.7 135.15L1099.7 141ZM1186.1 141L1122.5 141L1122.5 35.25L1186.1 35.25L1186.1 41.1L1128.8 41.1L1128.8 84.45L1183.1 84.45L1183.1 90.3L1128.8 90.3L1128.8 135.15L1186.1 135.15L1186.1 141ZM1237.85 141L1231.55 141L1231.55 40.95L1192.7 40.95L1192.7 35.25L1276.7 35.25L1276.7 40.95L1237.85 40.95L1237.85 141ZM1320.8 142.2C1312.5 142.2 1305.25 141.05 1299.05 138.75C1292.85 136.45 1287.25 132.85 1282.25 127.95L1285.4 122.7C1290.7 127.6 1296 131.05 1301.3 133.05C1306.6 135.05 1313.1 136.05 1320.8 136.05C1330.3 136.05 1337.65 134.1 1342.85 130.2C1348.05 126.2 1350.65 120.55 1350.65 113.25C1350.65 109.05 1349.35 105.65 1346.75 103.05C1344.15 100.45 1340.95 98.5 1337.15 97.2C1333.35 95.8 1328.25 94.35 1321.85 92.85C1313.25 90.75 1306.6 88.9 1301.9 87.3C1297.3 85.6 1293.15 82.85 1289.45 79.05C1285.85 75.15 1284.05 69.9 1284.05 63.3C1284.05 57.4 1285.5 52.25 1288.4 47.85C1291.4 43.45 1295.65 40.05 1301.15 37.65C1306.75 35.25 1313.25 34.05 1320.65 34.05C1335.15 34.05 1347 38.8 1356.2 48.3L1353.05 53.55C1348.05 48.85 1342.95 45.45 1337.75 43.35C1332.65 41.25 1326.95 40.2 1320.65 40.2C1311.15 40.2 1303.75 42.25 1298.45 46.35C1293.15 50.45 1290.5 56.2 1290.5 63.6C1290.5 70 1292.8 74.75 1297.4 77.85C1302 80.85 1308.45 83.4 1316.75 85.5L1323.2 87C1330.4 88.6 1336.25 90.25 1340.75 91.95C1345.25 93.55 1349.05 96.1 1352.15 99.6C1355.35 103.1 1356.95 107.8 1356.95 113.7C1356.95 119.3 1355.45 124.25 1352.45 128.55C1349.45 132.85 1345.2 136.2 1339.7 138.6C1334.3 141 1328 142.2 1320.8 142.2Z" />
	<g id="&lt;Group&gt;">
		<path id="&lt;Path&gt;" class="shp1" d="M89 24.05L56 43.11L23 24.05L56 5L89 24.05Z" />
		<path id="&lt;Path&gt;" class="shp2" d="M56 43.11L56 55.81L23 36.76L23 24.05L56 43.11Z" />
		<path id="&lt;Path&gt;" class="shp0" d="M89 24.05L89 36.76L56 55.81L56 43.11L89 24.05Z" />
		<path id="&lt;Path&gt;" class="shp3" d="M56 157.43L56 170.14L23 151.08L23 138.38L56 157.43Z" />
		<path id="&lt;Path&gt;" class="shp0" d="M89 138.38L89 151.08L56 170.14L56 157.43L89 138.38Z" />
		<path id="&lt;Path&gt;" class="shp3" d="M56 119.33L56 132.03L23 112.97L23 100.27L56 119.33Z" />
		<path id="&lt;Path&gt;" class="shp0" d="M89 100.27L89 112.97L56 132.03L56 119.33L89 100.27Z" />
		<path id="&lt;Path&gt;" class="shp3" d="M56 93.92L56 106.62L23 87.57L23 74.87L56 93.92Z" />
		<path id="&lt;Path&gt;" class="shp0" d="M89 74.87L89 87.57L56 106.62L56 93.92L89 74.87Z" />
		<path id="&lt;Path&gt;" class="shp0" d="M89 49.46L89 62.16L56 81.22L23 62.16L23 49.46L56 68.51L89 49.46Z" />
		<path id="&lt;Path&gt;" class="shp3" d="M23 36.76L56 55.81L67 49.46L67 62.16L56 68.51L23 49.46L23 36.76Z" />
		<path id="&lt;Path&gt;" class="shp4" d="M67 62.16L67 49.46L89 36.76L89 49.46L67 62.16Z" />
		<path id="&lt;Path&gt;" class="shp0" d="M23 112.97L56 132.03L67 125.68L67 138.38L56 144.73L23 125.68L23 112.97Z" />
		<path id="&lt;Path&gt;" class="shp3" d="M67 138.38L67 125.68L89 112.97L89 125.68L67 138.38Z" />
		<path id="&lt;Path&gt;" class="shp2" d="M23 125.68L56 144.73L67 138.38L67 151.08L56 157.43L23 138.38L23 125.68Z" />
		<path id="&lt;Path&gt;" class="shp0" d="M67 151.08L67 138.38L89 125.68L89 138.38L67 151.08Z" />
		<path id="&lt;Path&gt;" class="shp2" d="M23 62.16L56 81.22L67 74.87L67 87.57L56 93.92L23 74.87L23 62.16Z" />
		<path id="&lt;Path&gt;" class="shp3" d="M67 87.57L67 74.87L89 62.16L89 74.87L67 87.57Z" />
		<path id="&lt;Path&gt;" class="shp2" d="M89 100.27L56 119.33L34 106.62L34 93.92L56 106.62L89 87.57L89 100.27Z" />
		<path id="&lt;Path&gt;" class="shp0" d="M23 100.27L23 87.57L34 93.92L34 106.62L23 100.27Z" />
	</g>
</svg>